<svg width="1473" height="1087" viewBox="0 0 1473 1087" fill="none" xmlns="http://www.w3.org/2000/svg">
<mask id="path-1-outside-1_2823_1580" maskUnits="userSpaceOnUse" x="-14.5969" y="-16.0143" width="1498.9" height="1113.91" fill="black">
<rect fill="white" x="-14.5969" y="-16.0143" width="1498.9" height="1113.91"/>
<path d="M323.204 131.664L259.07 137.921L280.586 358.479L213.715 365.002L192.199 144.444L128.457 150.662L122.887 93.5677L321.154 74.2264L323.204 131.664Z"/>
<path d="M406.297 82.896C408.319 103.622 395.376 120.676 372.303 122.927C348.058 125.292 334.018 110.87 331.996 90.1442C329.974 69.4181 342.526 52.4023 365.599 50.1515C389.453 47.8245 404.275 62.1698 406.297 82.896ZM362.916 350.447L343.956 156.09L406.735 144.044L426.267 344.267L362.916 350.447Z"/>
<path d="M575.709 332.058L569.863 308.546C554.096 329.034 539.102 337.208 520.332 339.039C480.444 342.93 446.546 311.101 440.48 248.923C434.148 184.007 462.218 135.868 533.782 128.887C538.866 128.391 544.026 128.678 549.186 128.964L539.839 33.154L602.619 21.108L631.917 321.442L575.709 332.058ZM554.221 180.584C546.095 178.218 538.551 177.77 532.685 178.342C512.741 180.288 501.161 199.182 504.442 232.814C508.333 272.702 523.079 286.265 537.939 284.815C546.933 283.938 555.584 279.541 562.881 269.354L554.221 180.584Z"/>
<path d="M679.173 423.028L656.034 371.99C689.618 356.081 706.386 341.812 716.038 327.448C668.998 233.736 629.388 123.114 629.388 123.114L699.778 116.247C699.778 116.247 728.486 208.194 751.921 266.31C756.146 248.922 759.609 223.713 761.746 197.054C763.73 168.831 764.235 137.594 763.52 110.029L824.525 104.078C825.069 154.162 820.995 205.486 812.287 249.762C803.655 294.819 787.363 338.255 759.846 367.785C736.01 394.587 711.927 410.753 679.173 423.028Z"/>
<path d="M907.615 33.9914C909.637 54.7176 896.693 71.7715 873.621 74.0222C849.375 76.3875 835.336 61.9658 833.314 41.2396C831.292 20.5134 843.844 3.49765 866.916 1.24688C890.771 -1.08018 905.593 13.2652 907.615 33.9914ZM864.234 301.543L845.274 107.186L908.053 95.1398L927.585 295.363L864.234 301.543Z"/>
<path d="M956.743 292.518L937.555 95.8149L993.762 85.1995L998.464 113.165C1012.28 88.9195 1032.32 79.8586 1052.66 77.8749C1094.11 73.8311 1114.72 103.008 1119.41 151.109L1131.55 275.466L1068.19 281.646L1056.75 164.328C1054.58 142.037 1046.66 133.73 1032.97 135.065C1025.15 135.828 1016.54 140.616 1006.93 151.422L1020.09 286.338L956.743 292.518Z"/>
<path d="M1233.27 372.133C1167.18 378.58 1146.22 349.832 1143.97 326.76C1142.02 306.816 1150.63 285.842 1177.13 274.177C1170.23 268.139 1165.91 260.27 1164.91 250.103C1163.43 234.852 1169.91 220.401 1183.86 209.566C1159.79 201.65 1145.53 180.933 1142.02 144.955C1137.33 96.8549 1171.34 65.1126 1215.92 60.7637C1235.09 58.8944 1250.76 61.7082 1262.78 67.641L1315.19 62.5291L1317.63 103.743L1296.12 105.841C1299.93 112.575 1301.95 121.064 1302.79 129.667C1306.91 171.902 1283.13 207.383 1226.42 212.915C1223.69 213.182 1221.34 213.411 1218.92 212.857C1217.27 216.177 1216.75 218.99 1216.98 221.337C1217.59 227.594 1223.36 234.137 1250.89 233.031L1277.2 231.648C1320.8 229.369 1338.91 244.973 1342.11 277.822C1345.01 307.543 1324 363.283 1233.27 372.133ZM1244.83 134.531C1242.51 110.676 1230.41 100.013 1218.68 101.157C1204.6 102.531 1198.86 116.513 1201.11 139.586C1203.55 164.614 1214.71 173.789 1226.44 172.645C1240.91 171.233 1247.05 157.213 1244.83 134.531ZM1288.42 298.061C1287.5 288.676 1280.48 285.414 1262.84 286.739L1235.7 287.807C1222.76 288.675 1216.78 288.074 1210.65 285.909C1199.8 292.099 1196.3 300.731 1197.03 308.161C1198.1 319.111 1208.58 333.485 1242.99 330.128C1277.79 326.733 1289.53 309.402 1288.42 298.061Z"/>
<path d="M56.4239 660.038C46.6758 660.817 39.2156 658.578 34.0432 653.32C28.8709 648.062 25.8584 640.102 25.0059 629.44L18.557 548.789L29.2142 515.287C32.3884 514.726 35.5109 514.477 38.5815 514.538C41.7923 514.434 45.2619 514.693 48.9906 515.315L56.8278 613.329C58.0701 628.865 62.1944 636.353 69.2009 635.793C72.7041 635.513 76.2591 634.922 79.8659 634.021C83.4606 632.967 87.1771 631.52 91.0154 629.68C92.837 631.374 94.3022 633.403 95.4109 635.767C96.5075 637.978 97.1075 640.69 97.211 643.9C93.0618 647.605 87.3591 651.05 80.1027 654.236C72.9987 657.41 65.1058 659.344 56.4239 660.038ZM20.2012 569.352C18.1724 568.901 15.6166 568.569 12.5338 568.355C9.45101 568.142 6.44435 567.923 3.51385 567.697C2.55742 565.321 1.82336 562.85 1.31169 560.285C0.95233 557.708 0.903688 555.183 1.16576 552.709C3.83434 551.576 6.6674 550.583 9.66496 549.73C12.8148 548.865 16.053 548.146 19.3796 547.574L40.4354 546.35L87.7654 543.025C88.2222 546.821 88.5084 550.4 88.624 553.764C88.7275 556.974 88.6908 560.35 88.514 563.889L20.2012 569.352Z"/>
<path d="M105.822 653.099C105.255 651.765 104.698 649.587 104.15 646.565C103.601 643.543 103.218 640.661 102.998 637.919C106.173 637.359 109.405 636.564 112.695 635.534C115.985 634.505 118.742 633.518 120.965 632.574C121.221 628.108 121.185 623.819 120.856 619.706L111.484 502.5C108.53 501.97 105.505 501.522 102.41 501.156C99.3025 500.638 96.2136 500.349 93.1429 500.288C92.351 498.052 91.7114 495.804 91.2241 493.543C90.8891 491.271 90.8526 488.898 91.1147 486.424C99.1082 482.872 107.245 480.152 115.525 478.264C123.792 476.223 132.109 474.792 140.474 473.97L143.435 476.492C143.891 484.12 144.324 491.443 144.732 498.462C145.127 505.328 145.535 512.347 145.955 519.518C146.528 526.677 147.149 534.445 147.819 542.822L153.391 612.506C153.866 618.446 154.551 624.14 155.446 629.587C158.212 629.672 160.997 629.986 163.799 630.528C166.754 631.058 169.182 631.707 171.083 632.475C171.277 634.912 171.35 637.742 171.302 640.965C171.393 644.024 171.271 646.333 170.936 647.892C169.096 647.886 166.348 648.029 162.693 648.322C159.037 648.614 155.153 648.925 151.041 649.253C147.068 649.418 143.559 649.622 140.513 649.865C132.592 650.499 125.897 651.111 120.425 651.701C115.107 652.28 110.239 652.746 105.822 653.099ZM180.76 647.107C180.346 645.76 179.865 643.576 179.316 640.554C178.92 637.52 178.613 634.632 178.394 631.891C180.337 631.275 182.275 630.584 184.206 629.816C186.278 628.884 188.044 627.977 189.507 627.093C189.604 624.479 189.656 622.253 189.662 620.413C189.668 618.573 189.58 616.51 189.397 614.226L186.749 581.097C186.347 576.071 185.536 571.69 184.318 567.955C183.24 564.056 181.321 561.144 178.561 559.218C175.789 557.141 171.814 556.309 166.635 556.723C161.456 557.137 155.818 558.508 149.719 560.835C143.62 563.162 138.484 566.025 134.311 569.425L127.457 558.476C131.429 554.48 135.953 550.669 141.028 547.044C146.244 543.255 152.117 540.026 158.648 537.358C165.18 534.689 172.253 533.051 179.869 532.442C185.657 531.979 191.396 532.823 197.086 534.974C202.764 536.972 207.568 540.497 211.498 545.548C215.567 550.434 217.931 556.99 218.589 565.215L221.932 607.025C222.407 612.966 223.092 618.659 223.987 624.106C227.058 624.167 230.223 624.451 233.483 624.956C236.742 625.462 239.398 626.093 241.452 626.848C241.646 629.285 241.719 632.115 241.671 635.338C241.762 638.397 241.564 640.712 241.076 642.284C239.084 642.29 236.108 642.451 232.148 642.768C228.34 643.072 224.303 643.395 220.039 643.736C215.762 643.925 212.1 644.141 209.054 644.385C202.504 644.908 197.027 645.423 192.622 645.928C188.37 646.422 184.416 646.815 180.76 647.107Z"/>
<path d="M306.194 640.066C294.161 641.028 284.142 639.377 276.137 635.112C268.119 630.694 261.948 624.443 257.622 616.358C253.449 608.261 250.955 599.11 250.139 588.905C249.542 581.441 250.246 573.95 252.251 566.432C254.408 558.902 257.686 551.972 262.085 545.642C266.484 539.312 271.818 534.133 278.087 530.106C284.497 525.915 291.662 523.503 299.582 522.869C308.264 522.175 315.538 523.05 321.405 525.493C327.425 527.924 332.223 531.373 335.799 535.839C339.515 540.14 342.272 544.902 344.069 550.123C345.866 555.345 346.953 560.316 347.331 565.038C347.526 567.475 347.556 569.772 347.422 571.929C347.288 574.085 346.907 576.032 346.279 577.768L343.757 580.729C335.824 581.21 327.213 581.822 317.921 582.565C308.618 583.156 299.854 583.78 291.629 584.437L267.183 586.392C267.183 586.392 267.116 585.554 266.982 583.879C266.848 582.204 266.689 580.223 266.507 577.939C266.324 575.654 266.166 573.674 266.032 571.998C265.898 570.323 265.831 569.485 265.831 569.485L287.307 567.768C293.095 567.305 298.344 566.809 303.053 566.279C307.763 565.749 311.482 565.298 314.212 564.927C313.895 560.967 313.152 557.424 311.982 554.298C310.953 551.008 309.216 548.465 306.773 546.667C304.483 544.858 301.205 544.123 296.94 544.464C295.722 544.562 294.147 544.994 292.215 545.762C290.436 546.517 289.209 547.458 288.532 548.586C286.796 551.79 285.203 555.826 283.752 560.694C282.302 565.562 281.851 571.423 282.399 578.277C282.728 582.39 283.532 586.694 284.811 591.191C286.09 595.687 287.955 599.83 290.404 603.62C292.993 607.245 296.219 610.206 300.081 612.503C304.084 614.636 308.827 615.483 314.31 615.044C318.88 614.679 323.477 613.698 328.101 612.102C332.725 610.506 338.202 608.075 344.533 604.81C346.494 606.339 348.024 608.21 349.12 610.421C350.217 612.633 351.045 615.326 351.606 618.5C348.194 621.839 344.008 625.086 339.049 628.242C334.089 631.398 328.782 634.045 323.128 636.183C317.474 638.321 311.83 639.616 306.194 640.066Z"/>
<path d="M564.412 700.787L409.608 699.63L411.693 420.667L559.818 421.774L559.392 478.746L478.454 478.141L478.054 531.576L552.706 532.134L552.292 587.533L477.64 586.975L477.223 642.768L568.769 643.452L564.412 700.787Z"/>
<path d="M760.28 703.43C752.015 705.333 744.544 706.063 735.114 705.993C709.968 705.805 698.624 699.04 693.634 683.286C678.58 699.676 660.852 705.83 640.421 705.678C608.989 705.443 585.96 684.838 586.237 647.905C586.48 615.294 605.592 581.645 686.137 582.247L686.199 573.996C686.34 555.137 680.898 547.238 661.253 547.091C647.501 546.988 629.803 549.213 603.414 557.66L599.427 512.837C618.753 503.158 648.267 497.092 670.663 497.259C726.062 497.673 748.278 521.808 747.87 576.422L747.345 646.752C747.239 660.897 748.775 665.623 762.134 665.723L760.28 703.43ZM685.876 617.216C650.914 616.169 642.961 628.683 642.87 640.863C642.782 652.65 649.406 660.165 662.765 660.265C671.016 660.327 678.504 657.239 685.62 651.399L685.876 617.216Z"/>
<path d="M842.337 808.955C775.937 808.459 758.092 777.677 758.265 754.496C758.415 734.458 769.173 714.499 796.744 705.668C790.508 698.941 787.033 690.664 787.11 680.448C787.224 665.125 795.185 651.432 810.186 642.114C787.081 631.725 775.065 609.631 775.336 573.484C775.697 525.156 812.841 497.143 857.632 497.478C876.884 497.622 892.175 502.059 903.517 509.216L956.166 509.61L954.286 550.853L932.676 550.692C935.766 557.787 936.88 566.44 936.816 575.084C936.499 617.518 909.142 650.319 852.171 649.893C849.42 649.873 847.063 649.855 844.711 649.052C842.723 652.18 841.917 654.925 841.899 657.282C841.852 663.569 846.907 670.679 874.399 672.456L900.714 673.832C944.312 676.122 960.685 693.534 960.438 726.538C960.215 756.398 933.491 809.637 842.337 808.955ZM878.672 573.863C878.851 549.896 867.938 538.027 856.151 537.939C842.006 537.833 834.834 551.139 834.661 574.32C834.473 599.466 844.612 609.758 856.399 609.846C870.937 609.955 878.502 596.652 878.672 573.863ZM904.927 741.054C904.997 731.624 898.347 727.645 880.67 727.12L853.571 725.346C840.608 724.856 834.724 723.633 828.851 720.839C817.418 725.861 813.035 734.08 812.979 741.545C812.897 752.547 821.819 767.938 856.394 768.196C891.363 768.457 904.842 752.448 904.927 741.054Z"/>
<path d="M975.64 703.862L977.872 405.253L1041.57 399.836L1039.29 704.337L975.64 703.862Z"/>
<path d="M1231.33 696.343C1210.83 705.227 1186.44 709.367 1167.58 709.226C1086.64 709.014 1063.01 663.257 1063.45 603.929C1063.92 541.85 1099.2 500.463 1157.74 500.901C1206.85 501.268 1234.12 533.299 1233.7 589.484C1233.64 596.949 1232.78 607.159 1230.74 617.753L1126.22 616.972C1126.81 643.695 1141.63 658.737 1174.63 658.984C1191.13 659.107 1209.62 657.281 1233.63 650.78L1231.33 696.343ZM1174.81 582.364C1174.99 558.004 1164.87 545.748 1150.73 545.642C1136.97 545.539 1126.27 557.64 1125.69 583.176L1174.81 582.364Z"/>
<path d="M1326.93 451.871C1326.39 471.906 1320.29 499.365 1281.83 544.657L1249.36 526.733C1268.44 496.227 1273.69 477.406 1273.79 464.833C1273.87 453.832 1270.03 442.408 1256 426.979C1264.75 411.72 1277.78 403.566 1290.75 403.663C1313.14 403.831 1327.51 427.121 1326.93 451.871Z"/>
<path d="M1471.78 639.594C1471.51 675.742 1448.46 710.933 1391.88 710.51C1376.95 710.398 1356.54 707.102 1339.3 701.079L1339.27 652.749C1362 659.599 1374.17 661.261 1385.96 661.349C1402.85 661.476 1408.8 654.448 1408.87 645.804C1408.91 639.517 1406.6 633.999 1389.75 627.979L1374.46 623.15C1348.19 615.095 1338.1 598.909 1338.31 571.013C1338.21 530.934 1364.36 502.445 1414.65 502.821C1429.58 502.933 1449.6 505.44 1465.66 511.847L1461 557.392C1441 552.527 1428.43 551.254 1419 551.184C1403.29 551.066 1398.13 557.315 1398.07 565.173C1398.03 571.459 1400.74 576.195 1416.81 581.423L1431.71 586.249C1462.28 595.908 1471.97 614.055 1471.78 639.594Z"/>
<path d="M397.624 1085.4L385.107 806.707L459.685 803.358L566.481 974.372L558.6 798.915L622.973 796.024L635.49 1074.71L559.342 1078.13L453.724 907.067L461.605 1082.52L397.624 1085.4Z"/>
<path d="M828.318 1056.61C808.313 1066.56 784.17 1071.97 765.329 1072.81C684.488 1076.84 658.5 1032.38 655.838 973.112C653.052 911.093 686.117 867.917 744.603 865.29C793.667 863.087 822.572 893.647 825.093 949.777C825.428 957.235 825.101 967.476 823.614 978.162L719.205 982.852C721.188 1009.51 736.774 1023.75 769.746 1022.27C786.231 1021.53 804.592 1018.74 828.236 1010.99L828.318 1056.61ZM765.915 945.749C764.822 921.412 754.07 909.703 739.94 910.337C726.201 910.954 716.15 923.599 716.903 949.13L765.915 945.749Z"/>
<path d="M983.349 991.047C984.971 1027.16 963.791 1063.51 907.269 1066.05C892.353 1066.72 871.801 1064.49 854.266 1059.38L851.705 1011.12C874.77 1016.77 887.009 1017.79 898.784 1017.26C915.663 1016.51 921.233 1009.18 920.845 1000.54C920.563 994.26 917.961 988.87 900.819 983.741L885.299 979.718C858.648 973.049 847.719 957.414 846.468 929.545C844.277 889.525 868.896 859.708 919.138 857.451C934.054 856.781 954.178 858.237 970.554 863.795L968.281 909.521C948.051 905.71 935.437 905.096 926.017 905.52C910.316 906.225 905.496 912.734 905.848 920.585C906.13 926.865 909.089 931.452 925.412 935.832L940.539 939.872C971.579 947.918 982.203 965.533 983.349 991.047Z"/>
<path d="M1126.9 1045.96C1112.68 1053.28 1096.73 1057.14 1082.6 1057.78C1048.05 1059.33 1020.34 1046.42 1017.82 990.285L1014.27 911.389L993.861 912.305L991.816 866.773L1014.76 861.022L1020.59 815.53L1073.54 812.365L1075.64 859.075L1116.85 857.224L1117.11 906.769L1077.86 908.532L1081.05 979.579C1081.91 998.812 1089.62 1003.97 1102.18 1003.41C1107.67 1003.16 1114.33 1002.47 1125.55 998.425L1126.9 1045.96Z"/>
</mask>
<path d="M323.204 131.664L259.07 137.921L280.586 358.479L213.715 365.002L192.199 144.444L128.457 150.662L122.887 93.5677L321.154 74.2264L323.204 131.664Z" fill="#FFFBE6"/>
<path d="M406.297 82.896C408.319 103.622 395.376 120.676 372.303 122.927C348.058 125.292 334.018 110.87 331.996 90.1442C329.974 69.4181 342.526 52.4023 365.599 50.1515C389.453 47.8245 404.275 62.1698 406.297 82.896ZM362.916 350.447L343.956 156.09L406.735 144.044L426.267 344.267L362.916 350.447Z" fill="#FFFBE6"/>
<path d="M575.709 332.058L569.863 308.546C554.096 329.034 539.102 337.208 520.332 339.039C480.444 342.93 446.546 311.101 440.48 248.923C434.148 184.007 462.218 135.868 533.782 128.887C538.866 128.391 544.026 128.678 549.186 128.964L539.839 33.154L602.619 21.108L631.917 321.442L575.709 332.058ZM554.221 180.584C546.095 178.218 538.551 177.77 532.685 178.342C512.741 180.288 501.161 199.182 504.442 232.814C508.333 272.702 523.079 286.265 537.939 284.815C546.933 283.938 555.584 279.541 562.881 269.354L554.221 180.584Z" fill="#FFFBE6"/>
<path d="M679.173 423.028L656.034 371.99C689.618 356.081 706.386 341.812 716.038 327.448C668.998 233.736 629.388 123.114 629.388 123.114L699.778 116.247C699.778 116.247 728.486 208.194 751.921 266.31C756.146 248.922 759.609 223.713 761.746 197.054C763.73 168.831 764.235 137.594 763.52 110.029L824.525 104.078C825.069 154.162 820.995 205.486 812.287 249.762C803.655 294.819 787.363 338.255 759.846 367.785C736.01 394.587 711.927 410.753 679.173 423.028Z" fill="#FFFBE6"/>
<path d="M907.615 33.9914C909.637 54.7176 896.693 71.7715 873.621 74.0222C849.375 76.3875 835.336 61.9658 833.314 41.2396C831.292 20.5134 843.844 3.49765 866.916 1.24688C890.771 -1.08018 905.593 13.2652 907.615 33.9914ZM864.234 301.543L845.274 107.186L908.053 95.1398L927.585 295.363L864.234 301.543Z" fill="#FFFBE6"/>
<path d="M956.743 292.518L937.555 95.8149L993.762 85.1995L998.464 113.165C1012.28 88.9195 1032.32 79.8586 1052.66 77.8749C1094.11 73.8311 1114.72 103.008 1119.41 151.109L1131.55 275.466L1068.19 281.646L1056.75 164.328C1054.58 142.037 1046.66 133.73 1032.97 135.065C1025.15 135.828 1016.54 140.616 1006.93 151.422L1020.09 286.338L956.743 292.518Z" fill="#FFFBE6"/>
<path d="M1233.27 372.133C1167.18 378.58 1146.22 349.832 1143.97 326.76C1142.02 306.816 1150.63 285.842 1177.13 274.177C1170.23 268.139 1165.91 260.27 1164.91 250.103C1163.43 234.852 1169.91 220.401 1183.86 209.566C1159.79 201.65 1145.53 180.933 1142.02 144.955C1137.33 96.8549 1171.34 65.1126 1215.92 60.7637C1235.09 58.8944 1250.76 61.7082 1262.78 67.641L1315.19 62.5291L1317.63 103.743L1296.12 105.841C1299.93 112.575 1301.95 121.064 1302.79 129.667C1306.91 171.902 1283.13 207.383 1226.42 212.915C1223.69 213.182 1221.34 213.411 1218.92 212.857C1217.27 216.177 1216.75 218.99 1216.98 221.337C1217.59 227.594 1223.36 234.137 1250.89 233.031L1277.2 231.648C1320.8 229.369 1338.91 244.973 1342.11 277.822C1345.01 307.543 1324 363.283 1233.27 372.133ZM1244.83 134.531C1242.51 110.676 1230.41 100.013 1218.68 101.157C1204.6 102.531 1198.86 116.513 1201.11 139.586C1203.55 164.614 1214.71 173.789 1226.44 172.645C1240.91 171.233 1247.05 157.213 1244.83 134.531ZM1288.42 298.061C1287.5 288.676 1280.48 285.414 1262.84 286.739L1235.7 287.807C1222.76 288.675 1216.78 288.074 1210.65 285.909C1199.8 292.099 1196.3 300.731 1197.03 308.161C1198.1 319.111 1208.58 333.485 1242.99 330.128C1277.79 326.733 1289.53 309.402 1288.42 298.061Z" fill="#FFFBE6"/>
<path d="M56.4239 660.038C46.6758 660.817 39.2156 658.578 34.0432 653.32C28.8709 648.062 25.8584 640.102 25.0059 629.44L18.557 548.789L29.2142 515.287C32.3884 514.726 35.5109 514.477 38.5815 514.538C41.7923 514.434 45.2619 514.693 48.9906 515.315L56.8278 613.329C58.0701 628.865 62.1944 636.353 69.2009 635.793C72.7041 635.513 76.2591 634.922 79.8659 634.021C83.4606 632.967 87.1771 631.52 91.0154 629.68C92.837 631.374 94.3022 633.403 95.4109 635.767C96.5075 637.978 97.1075 640.69 97.211 643.9C93.0618 647.605 87.3591 651.05 80.1027 654.236C72.9987 657.41 65.1058 659.344 56.4239 660.038ZM20.2012 569.352C18.1724 568.901 15.6166 568.569 12.5338 568.355C9.45101 568.142 6.44435 567.923 3.51385 567.697C2.55742 565.321 1.82336 562.85 1.31169 560.285C0.95233 557.708 0.903688 555.183 1.16576 552.709C3.83434 551.576 6.6674 550.583 9.66496 549.73C12.8148 548.865 16.053 548.146 19.3796 547.574L40.4354 546.35L87.7654 543.025C88.2222 546.821 88.5084 550.4 88.624 553.764C88.7275 556.974 88.6908 560.35 88.514 563.889L20.2012 569.352Z" fill="#FFFBE6"/>
<path d="M105.822 653.099C105.255 651.765 104.698 649.587 104.15 646.565C103.601 643.543 103.218 640.661 102.998 637.919C106.173 637.359 109.405 636.564 112.695 635.534C115.985 634.505 118.742 633.518 120.965 632.574C121.221 628.108 121.185 623.819 120.856 619.706L111.484 502.5C108.53 501.97 105.505 501.522 102.41 501.156C99.3025 500.638 96.2136 500.349 93.1429 500.288C92.351 498.052 91.7114 495.804 91.2241 493.543C90.8891 491.271 90.8526 488.898 91.1147 486.424C99.1082 482.872 107.245 480.152 115.525 478.264C123.792 476.223 132.109 474.792 140.474 473.97L143.435 476.492C143.891 484.12 144.324 491.443 144.732 498.462C145.127 505.328 145.535 512.347 145.955 519.518C146.528 526.677 147.149 534.445 147.819 542.822L153.391 612.506C153.866 618.446 154.551 624.14 155.446 629.587C158.212 629.672 160.997 629.986 163.799 630.528C166.754 631.058 169.182 631.707 171.083 632.475C171.277 634.912 171.35 637.742 171.302 640.965C171.393 644.024 171.271 646.333 170.936 647.892C169.096 647.886 166.348 648.029 162.693 648.322C159.037 648.614 155.153 648.925 151.041 649.253C147.068 649.418 143.559 649.622 140.513 649.865C132.592 650.499 125.897 651.111 120.425 651.701C115.107 652.28 110.239 652.746 105.822 653.099ZM180.76 647.107C180.346 645.76 179.865 643.576 179.316 640.554C178.92 637.52 178.613 634.632 178.394 631.891C180.337 631.275 182.275 630.584 184.206 629.816C186.278 628.884 188.044 627.977 189.507 627.093C189.604 624.479 189.656 622.253 189.662 620.413C189.668 618.573 189.58 616.51 189.397 614.226L186.749 581.097C186.347 576.071 185.536 571.69 184.318 567.955C183.24 564.056 181.321 561.144 178.561 559.218C175.789 557.141 171.814 556.309 166.635 556.723C161.456 557.137 155.818 558.508 149.719 560.835C143.62 563.162 138.484 566.025 134.311 569.425L127.457 558.476C131.429 554.48 135.953 550.669 141.028 547.044C146.244 543.255 152.117 540.026 158.648 537.358C165.18 534.689 172.253 533.051 179.869 532.442C185.657 531.979 191.396 532.823 197.086 534.974C202.764 536.972 207.568 540.497 211.498 545.548C215.567 550.434 217.931 556.99 218.589 565.215L221.932 607.025C222.407 612.966 223.092 618.659 223.987 624.106C227.058 624.167 230.223 624.451 233.483 624.956C236.742 625.462 239.398 626.093 241.452 626.848C241.646 629.285 241.719 632.115 241.671 635.338C241.762 638.397 241.564 640.712 241.076 642.284C239.084 642.29 236.108 642.451 232.148 642.768C228.34 643.072 224.303 643.395 220.039 643.736C215.762 643.925 212.1 644.141 209.054 644.385C202.504 644.908 197.027 645.423 192.622 645.928C188.37 646.422 184.416 646.815 180.76 647.107Z" fill="#FFFBE6"/>
<path d="M306.194 640.066C294.161 641.028 284.142 639.377 276.137 635.112C268.119 630.694 261.948 624.443 257.622 616.358C253.449 608.261 250.955 599.11 250.139 588.905C249.542 581.441 250.246 573.95 252.251 566.432C254.408 558.902 257.686 551.972 262.085 545.642C266.484 539.312 271.818 534.133 278.087 530.106C284.497 525.915 291.662 523.503 299.582 522.869C308.264 522.175 315.538 523.05 321.405 525.493C327.425 527.924 332.223 531.373 335.799 535.839C339.515 540.14 342.272 544.902 344.069 550.123C345.866 555.345 346.953 560.316 347.331 565.038C347.526 567.475 347.556 569.772 347.422 571.929C347.288 574.085 346.907 576.032 346.279 577.768L343.757 580.729C335.824 581.21 327.213 581.822 317.921 582.565C308.618 583.156 299.854 583.78 291.629 584.437L267.183 586.392C267.183 586.392 267.116 585.554 266.982 583.879C266.848 582.204 266.689 580.223 266.507 577.939C266.324 575.654 266.166 573.674 266.032 571.998C265.898 570.323 265.831 569.485 265.831 569.485L287.307 567.768C293.095 567.305 298.344 566.809 303.053 566.279C307.763 565.749 311.482 565.298 314.212 564.927C313.895 560.967 313.152 557.424 311.982 554.298C310.953 551.008 309.216 548.465 306.773 546.667C304.483 544.858 301.205 544.123 296.94 544.464C295.722 544.562 294.147 544.994 292.215 545.762C290.436 546.517 289.209 547.458 288.532 548.586C286.796 551.79 285.203 555.826 283.752 560.694C282.302 565.562 281.851 571.423 282.399 578.277C282.728 582.39 283.532 586.694 284.811 591.191C286.09 595.687 287.955 599.83 290.404 603.62C292.993 607.245 296.219 610.206 300.081 612.503C304.084 614.636 308.827 615.483 314.31 615.044C318.88 614.679 323.477 613.698 328.101 612.102C332.725 610.506 338.202 608.075 344.533 604.81C346.494 606.339 348.024 608.21 349.12 610.421C350.217 612.633 351.045 615.326 351.606 618.5C348.194 621.839 344.008 625.086 339.049 628.242C334.089 631.398 328.782 634.045 323.128 636.183C317.474 638.321 311.83 639.616 306.194 640.066Z" fill="#FFFBE6"/>
<path d="M564.412 700.787L409.608 699.63L411.693 420.667L559.818 421.774L559.392 478.746L478.454 478.141L478.054 531.576L552.706 532.134L552.292 587.533L477.64 586.975L477.223 642.768L568.769 643.452L564.412 700.787Z" fill="#FFFBE6"/>
<path d="M760.28 703.43C752.015 705.333 744.544 706.063 735.114 705.993C709.968 705.805 698.624 699.04 693.634 683.286C678.58 699.676 660.852 705.83 640.421 705.678C608.989 705.443 585.96 684.838 586.237 647.905C586.48 615.294 605.592 581.645 686.137 582.247L686.199 573.996C686.34 555.137 680.898 547.238 661.253 547.091C647.501 546.988 629.803 549.213 603.414 557.66L599.427 512.837C618.753 503.158 648.267 497.092 670.663 497.259C726.062 497.673 748.278 521.808 747.87 576.422L747.345 646.752C747.239 660.897 748.775 665.623 762.134 665.723L760.28 703.43ZM685.876 617.216C650.914 616.169 642.961 628.683 642.87 640.863C642.782 652.65 649.406 660.165 662.765 660.265C671.016 660.327 678.504 657.239 685.62 651.399L685.876 617.216Z" fill="#FFFBE6"/>
<path d="M842.337 808.955C775.937 808.459 758.092 777.677 758.265 754.496C758.415 734.458 769.173 714.499 796.744 705.668C790.508 698.941 787.033 690.664 787.11 680.448C787.224 665.125 795.185 651.432 810.186 642.114C787.081 631.725 775.065 609.631 775.336 573.484C775.697 525.156 812.841 497.143 857.632 497.478C876.884 497.622 892.175 502.059 903.517 509.216L956.166 509.61L954.286 550.853L932.676 550.692C935.766 557.787 936.88 566.44 936.816 575.084C936.499 617.518 909.142 650.319 852.171 649.893C849.42 649.873 847.063 649.855 844.711 649.052C842.723 652.18 841.917 654.925 841.899 657.282C841.852 663.569 846.907 670.679 874.399 672.456L900.714 673.832C944.312 676.122 960.685 693.534 960.438 726.538C960.215 756.398 933.491 809.637 842.337 808.955ZM878.672 573.863C878.851 549.896 867.938 538.027 856.151 537.939C842.006 537.833 834.834 551.139 834.661 574.32C834.473 599.466 844.612 609.758 856.399 609.846C870.937 609.955 878.502 596.652 878.672 573.863ZM904.927 741.054C904.997 731.624 898.347 727.645 880.67 727.12L853.571 725.346C840.608 724.856 834.724 723.633 828.851 720.839C817.418 725.861 813.035 734.08 812.979 741.545C812.897 752.547 821.819 767.938 856.394 768.196C891.363 768.457 904.842 752.448 904.927 741.054Z" fill="#FFFBE6"/>
<path d="M975.64 703.862L977.872 405.253L1041.57 399.836L1039.29 704.337L975.64 703.862Z" fill="#FFFBE6"/>
<path d="M1231.33 696.343C1210.83 705.227 1186.44 709.367 1167.58 709.226C1086.64 709.014 1063.01 663.257 1063.45 603.929C1063.92 541.85 1099.2 500.463 1157.74 500.901C1206.85 501.268 1234.12 533.299 1233.7 589.484C1233.64 596.949 1232.78 607.159 1230.74 617.753L1126.22 616.972C1126.81 643.695 1141.63 658.737 1174.63 658.984C1191.13 659.107 1209.62 657.281 1233.63 650.78L1231.33 696.343ZM1174.81 582.364C1174.99 558.004 1164.87 545.748 1150.73 545.642C1136.97 545.539 1126.27 557.64 1125.69 583.176L1174.81 582.364Z" fill="#FFFBE6"/>
<path d="M1326.93 451.871C1326.39 471.906 1320.29 499.365 1281.83 544.657L1249.36 526.733C1268.44 496.227 1273.69 477.406 1273.79 464.833C1273.87 453.832 1270.03 442.408 1256 426.979C1264.75 411.72 1277.78 403.566 1290.75 403.663C1313.14 403.831 1327.51 427.121 1326.93 451.871Z" fill="#FFFBE6"/>
<path d="M1471.78 639.594C1471.51 675.742 1448.46 710.933 1391.88 710.51C1376.95 710.398 1356.54 707.102 1339.3 701.079L1339.27 652.749C1362 659.599 1374.17 661.261 1385.96 661.349C1402.85 661.476 1408.8 654.448 1408.87 645.804C1408.91 639.517 1406.6 633.999 1389.75 627.979L1374.46 623.15C1348.19 615.095 1338.1 598.909 1338.31 571.013C1338.21 530.934 1364.36 502.445 1414.65 502.821C1429.58 502.933 1449.6 505.44 1465.66 511.847L1461 557.392C1441 552.527 1428.43 551.254 1419 551.184C1403.29 551.066 1398.13 557.315 1398.07 565.173C1398.03 571.459 1400.74 576.195 1416.81 581.423L1431.71 586.249C1462.28 595.908 1471.97 614.055 1471.78 639.594Z" fill="#FFFBE6"/>
<path d="M397.624 1085.4L385.107 806.707L459.685 803.358L566.481 974.372L558.6 798.915L622.973 796.024L635.49 1074.71L559.342 1078.13L453.724 907.067L461.605 1082.52L397.624 1085.4Z" fill="#FFFBE6"/>
<path d="M828.318 1056.61C808.313 1066.56 784.17 1071.97 765.329 1072.81C684.488 1076.84 658.5 1032.38 655.838 973.112C653.052 911.093 686.117 867.917 744.603 865.29C793.667 863.087 822.572 893.647 825.093 949.777C825.428 957.235 825.101 967.476 823.614 978.162L719.205 982.852C721.188 1009.51 736.774 1023.75 769.746 1022.27C786.231 1021.53 804.592 1018.74 828.236 1010.99L828.318 1056.61ZM765.915 945.749C764.822 921.412 754.07 909.703 739.94 910.337C726.201 910.954 716.15 923.599 716.903 949.13L765.915 945.749Z" fill="#FFFBE6"/>
<path d="M983.349 991.047C984.971 1027.16 963.791 1063.51 907.269 1066.05C892.353 1066.72 871.801 1064.49 854.266 1059.38L851.705 1011.12C874.77 1016.77 887.009 1017.79 898.784 1017.26C915.663 1016.51 921.233 1009.18 920.845 1000.54C920.563 994.26 917.961 988.87 900.819 983.741L885.299 979.718C858.648 973.049 847.719 957.414 846.468 929.545C844.277 889.525 868.896 859.708 919.138 857.451C934.054 856.781 954.178 858.237 970.554 863.795L968.281 909.521C948.051 905.71 935.437 905.096 926.017 905.52C910.316 906.225 905.496 912.734 905.848 920.585C906.13 926.865 909.089 931.452 925.412 935.832L940.539 939.872C971.579 947.918 982.203 965.533 983.349 991.047Z" fill="#FFFBE6"/>
<path d="M1126.9 1045.96C1112.68 1053.28 1096.73 1057.14 1082.6 1057.78C1048.05 1059.33 1020.34 1046.42 1017.82 990.285L1014.27 911.389L993.861 912.305L991.816 866.773L1014.76 861.022L1020.59 815.53L1073.54 812.365L1075.64 859.075L1116.85 857.224L1117.11 906.769L1077.86 908.532L1081.05 979.579C1081.91 998.812 1089.62 1003.97 1102.18 1003.41C1107.67 1003.16 1114.33 1002.47 1125.55 998.425L1126.9 1045.96Z" fill="#FFFBE6"/>
<path d="M323.204 131.664L259.07 137.921L280.586 358.479L213.715 365.002L192.199 144.444L128.457 150.662L122.887 93.5677L321.154 74.2264L323.204 131.664Z" stroke="black" stroke-width="2" mask="url(#path-1-outside-1_2823_1580)"/>
<path d="M406.297 82.896C408.319 103.622 395.376 120.676 372.303 122.927C348.058 125.292 334.018 110.87 331.996 90.1442C329.974 69.4181 342.526 52.4023 365.599 50.1515C389.453 47.8245 404.275 62.1698 406.297 82.896ZM362.916 350.447L343.956 156.09L406.735 144.044L426.267 344.267L362.916 350.447Z" stroke="black" stroke-width="2" mask="url(#path-1-outside-1_2823_1580)"/>
<path d="M575.709 332.058L569.863 308.546C554.096 329.034 539.102 337.208 520.332 339.039C480.444 342.93 446.546 311.101 440.48 248.923C434.148 184.007 462.218 135.868 533.782 128.887C538.866 128.391 544.026 128.678 549.186 128.964L539.839 33.154L602.619 21.108L631.917 321.442L575.709 332.058ZM554.221 180.584C546.095 178.218 538.551 177.77 532.685 178.342C512.741 180.288 501.161 199.182 504.442 232.814C508.333 272.702 523.079 286.265 537.939 284.815C546.933 283.938 555.584 279.541 562.881 269.354L554.221 180.584Z" stroke="black" stroke-width="2" mask="url(#path-1-outside-1_2823_1580)"/>
<path d="M679.173 423.028L656.034 371.99C689.618 356.081 706.386 341.812 716.038 327.448C668.998 233.736 629.388 123.114 629.388 123.114L699.778 116.247C699.778 116.247 728.486 208.194 751.921 266.31C756.146 248.922 759.609 223.713 761.746 197.054C763.73 168.831 764.235 137.594 763.52 110.029L824.525 104.078C825.069 154.162 820.995 205.486 812.287 249.762C803.655 294.819 787.363 338.255 759.846 367.785C736.01 394.587 711.927 410.753 679.173 423.028Z" stroke="black" stroke-width="2" mask="url(#path-1-outside-1_2823_1580)"/>
<path d="M907.615 33.9914C909.637 54.7176 896.693 71.7715 873.621 74.0222C849.375 76.3875 835.336 61.9658 833.314 41.2396C831.292 20.5134 843.844 3.49765 866.916 1.24688C890.771 -1.08018 905.593 13.2652 907.615 33.9914ZM864.234 301.543L845.274 107.186L908.053 95.1398L927.585 295.363L864.234 301.543Z" stroke="black" stroke-width="2" mask="url(#path-1-outside-1_2823_1580)"/>
<path d="M956.743 292.518L937.555 95.8149L993.762 85.1995L998.464 113.165C1012.28 88.9195 1032.32 79.8586 1052.66 77.8749C1094.11 73.8311 1114.72 103.008 1119.41 151.109L1131.55 275.466L1068.19 281.646L1056.75 164.328C1054.58 142.037 1046.66 133.73 1032.97 135.065C1025.15 135.828 1016.54 140.616 1006.93 151.422L1020.09 286.338L956.743 292.518Z" stroke="black" stroke-width="2" mask="url(#path-1-outside-1_2823_1580)"/>
<path d="M1233.27 372.133C1167.18 378.58 1146.22 349.832 1143.97 326.76C1142.02 306.816 1150.63 285.842 1177.13 274.177C1170.23 268.139 1165.91 260.27 1164.91 250.103C1163.43 234.852 1169.91 220.401 1183.86 209.566C1159.79 201.65 1145.53 180.933 1142.02 144.955C1137.33 96.8549 1171.34 65.1126 1215.92 60.7637C1235.09 58.8944 1250.76 61.7082 1262.78 67.641L1315.19 62.5291L1317.63 103.743L1296.12 105.841C1299.93 112.575 1301.95 121.064 1302.79 129.667C1306.91 171.902 1283.13 207.383 1226.42 212.915C1223.69 213.182 1221.34 213.411 1218.92 212.857C1217.27 216.177 1216.75 218.99 1216.98 221.337C1217.59 227.594 1223.36 234.137 1250.89 233.031L1277.2 231.648C1320.8 229.369 1338.91 244.973 1342.11 277.822C1345.01 307.543 1324 363.283 1233.27 372.133ZM1244.83 134.531C1242.51 110.676 1230.41 100.013 1218.68 101.157C1204.6 102.531 1198.86 116.513 1201.11 139.586C1203.55 164.614 1214.71 173.789 1226.44 172.645C1240.91 171.233 1247.05 157.213 1244.83 134.531ZM1288.42 298.061C1287.5 288.676 1280.48 285.414 1262.84 286.739L1235.7 287.807C1222.76 288.675 1216.78 288.074 1210.65 285.909C1199.8 292.099 1196.3 300.731 1197.03 308.161C1198.1 319.111 1208.58 333.485 1242.99 330.128C1277.79 326.733 1289.53 309.402 1288.42 298.061Z" stroke="black" stroke-width="2" mask="url(#path-1-outside-1_2823_1580)"/>
<path d="M56.4239 660.038C46.6758 660.817 39.2156 658.578 34.0432 653.32C28.8709 648.062 25.8584 640.102 25.0059 629.44L18.557 548.789L29.2142 515.287C32.3884 514.726 35.5109 514.477 38.5815 514.538C41.7923 514.434 45.2619 514.693 48.9906 515.315L56.8278 613.329C58.0701 628.865 62.1944 636.353 69.2009 635.793C72.7041 635.513 76.2591 634.922 79.8659 634.021C83.4606 632.967 87.1771 631.52 91.0154 629.68C92.837 631.374 94.3022 633.403 95.4109 635.767C96.5075 637.978 97.1075 640.69 97.211 643.9C93.0618 647.605 87.3591 651.05 80.1027 654.236C72.9987 657.41 65.1058 659.344 56.4239 660.038ZM20.2012 569.352C18.1724 568.901 15.6166 568.569 12.5338 568.355C9.45101 568.142 6.44435 567.923 3.51385 567.697C2.55742 565.321 1.82336 562.85 1.31169 560.285C0.95233 557.708 0.903688 555.183 1.16576 552.709C3.83434 551.576 6.6674 550.583 9.66496 549.73C12.8148 548.865 16.053 548.146 19.3796 547.574L40.4354 546.35L87.7654 543.025C88.2222 546.821 88.5084 550.4 88.624 553.764C88.7275 556.974 88.6908 560.35 88.514 563.889L20.2012 569.352Z" stroke="black" stroke-width="2" mask="url(#path-1-outside-1_2823_1580)"/>
<path d="M105.822 653.099C105.255 651.765 104.698 649.587 104.15 646.565C103.601 643.543 103.218 640.661 102.998 637.919C106.173 637.359 109.405 636.564 112.695 635.534C115.985 634.505 118.742 633.518 120.965 632.574C121.221 628.108 121.185 623.819 120.856 619.706L111.484 502.5C108.53 501.97 105.505 501.522 102.41 501.156C99.3025 500.638 96.2136 500.349 93.1429 500.288C92.351 498.052 91.7114 495.804 91.2241 493.543C90.8891 491.271 90.8526 488.898 91.1147 486.424C99.1082 482.872 107.245 480.152 115.525 478.264C123.792 476.223 132.109 474.792 140.474 473.97L143.435 476.492C143.891 484.12 144.324 491.443 144.732 498.462C145.127 505.328 145.535 512.347 145.955 519.518C146.528 526.677 147.149 534.445 147.819 542.822L153.391 612.506C153.866 618.446 154.551 624.14 155.446 629.587C158.212 629.672 160.997 629.986 163.799 630.528C166.754 631.058 169.182 631.707 171.083 632.475C171.277 634.912 171.35 637.742 171.302 640.965C171.393 644.024 171.271 646.333 170.936 647.892C169.096 647.886 166.348 648.029 162.693 648.322C159.037 648.614 155.153 648.925 151.041 649.253C147.068 649.418 143.559 649.622 140.513 649.865C132.592 650.499 125.897 651.111 120.425 651.701C115.107 652.28 110.239 652.746 105.822 653.099ZM180.76 647.107C180.346 645.76 179.865 643.576 179.316 640.554C178.92 637.52 178.613 634.632 178.394 631.891C180.337 631.275 182.275 630.584 184.206 629.816C186.278 628.884 188.044 627.977 189.507 627.093C189.604 624.479 189.656 622.253 189.662 620.413C189.668 618.573 189.58 616.51 189.397 614.226L186.749 581.097C186.347 576.071 185.536 571.69 184.318 567.955C183.24 564.056 181.321 561.144 178.561 559.218C175.789 557.141 171.814 556.309 166.635 556.723C161.456 557.137 155.818 558.508 149.719 560.835C143.62 563.162 138.484 566.025 134.311 569.425L127.457 558.476C131.429 554.48 135.953 550.669 141.028 547.044C146.244 543.255 152.117 540.026 158.648 537.358C165.18 534.689 172.253 533.051 179.869 532.442C185.657 531.979 191.396 532.823 197.086 534.974C202.764 536.972 207.568 540.497 211.498 545.548C215.567 550.434 217.931 556.99 218.589 565.215L221.932 607.025C222.407 612.966 223.092 618.659 223.987 624.106C227.058 624.167 230.223 624.451 233.483 624.956C236.742 625.462 239.398 626.093 241.452 626.848C241.646 629.285 241.719 632.115 241.671 635.338C241.762 638.397 241.564 640.712 241.076 642.284C239.084 642.29 236.108 642.451 232.148 642.768C228.34 643.072 224.303 643.395 220.039 643.736C215.762 643.925 212.1 644.141 209.054 644.385C202.504 644.908 197.027 645.423 192.622 645.928C188.37 646.422 184.416 646.815 180.76 647.107Z" stroke="black" stroke-width="2" mask="url(#path-1-outside-1_2823_1580)"/>
<path d="M306.194 640.066C294.161 641.028 284.142 639.377 276.137 635.112C268.119 630.694 261.948 624.443 257.622 616.358C253.449 608.261 250.955 599.11 250.139 588.905C249.542 581.441 250.246 573.95 252.251 566.432C254.408 558.902 257.686 551.972 262.085 545.642C266.484 539.312 271.818 534.133 278.087 530.106C284.497 525.915 291.662 523.503 299.582 522.869C308.264 522.175 315.538 523.05 321.405 525.493C327.425 527.924 332.223 531.373 335.799 535.839C339.515 540.14 342.272 544.902 344.069 550.123C345.866 555.345 346.953 560.316 347.331 565.038C347.526 567.475 347.556 569.772 347.422 571.929C347.288 574.085 346.907 576.032 346.279 577.768L343.757 580.729C335.824 581.21 327.213 581.822 317.921 582.565C308.618 583.156 299.854 583.78 291.629 584.437L267.183 586.392C267.183 586.392 267.116 585.554 266.982 583.879C266.848 582.204 266.689 580.223 266.507 577.939C266.324 575.654 266.166 573.674 266.032 571.998C265.898 570.323 265.831 569.485 265.831 569.485L287.307 567.768C293.095 567.305 298.344 566.809 303.053 566.279C307.763 565.749 311.482 565.298 314.212 564.927C313.895 560.967 313.152 557.424 311.982 554.298C310.953 551.008 309.216 548.465 306.773 546.667C304.483 544.858 301.205 544.123 296.94 544.464C295.722 544.562 294.147 544.994 292.215 545.762C290.436 546.517 289.209 547.458 288.532 548.586C286.796 551.79 285.203 555.826 283.752 560.694C282.302 565.562 281.851 571.423 282.399 578.277C282.728 582.39 283.532 586.694 284.811 591.191C286.09 595.687 287.955 599.83 290.404 603.62C292.993 607.245 296.219 610.206 300.081 612.503C304.084 614.636 308.827 615.483 314.31 615.044C318.88 614.679 323.477 613.698 328.101 612.102C332.725 610.506 338.202 608.075 344.533 604.81C346.494 606.339 348.024 608.21 349.12 610.421C350.217 612.633 351.045 615.326 351.606 618.5C348.194 621.839 344.008 625.086 339.049 628.242C334.089 631.398 328.782 634.045 323.128 636.183C317.474 638.321 311.83 639.616 306.194 640.066Z" stroke="black" stroke-width="2" mask="url(#path-1-outside-1_2823_1580)"/>
<path d="M564.412 700.787L409.608 699.63L411.693 420.667L559.818 421.774L559.392 478.746L478.454 478.141L478.054 531.576L552.706 532.134L552.292 587.533L477.64 586.975L477.223 642.768L568.769 643.452L564.412 700.787Z" stroke="black" stroke-width="2" mask="url(#path-1-outside-1_2823_1580)"/>
<path d="M760.28 703.43C752.015 705.333 744.544 706.063 735.114 705.993C709.968 705.805 698.624 699.04 693.634 683.286C678.58 699.676 660.852 705.83 640.421 705.678C608.989 705.443 585.96 684.838 586.237 647.905C586.48 615.294 605.592 581.645 686.137 582.247L686.199 573.996C686.34 555.137 680.898 547.238 661.253 547.091C647.501 546.988 629.803 549.213 603.414 557.66L599.427 512.837C618.753 503.158 648.267 497.092 670.663 497.259C726.062 497.673 748.278 521.808 747.87 576.422L747.345 646.752C747.239 660.897 748.775 665.623 762.134 665.723L760.28 703.43ZM685.876 617.216C650.914 616.169 642.961 628.683 642.87 640.863C642.782 652.65 649.406 660.165 662.765 660.265C671.016 660.327 678.504 657.239 685.62 651.399L685.876 617.216Z" stroke="black" stroke-width="2" mask="url(#path-1-outside-1_2823_1580)"/>
<path d="M842.337 808.955C775.937 808.459 758.092 777.677 758.265 754.496C758.415 734.458 769.173 714.499 796.744 705.668C790.508 698.941 787.033 690.664 787.11 680.448C787.224 665.125 795.185 651.432 810.186 642.114C787.081 631.725 775.065 609.631 775.336 573.484C775.697 525.156 812.841 497.143 857.632 497.478C876.884 497.622 892.175 502.059 903.517 509.216L956.166 509.61L954.286 550.853L932.676 550.692C935.766 557.787 936.88 566.44 936.816 575.084C936.499 617.518 909.142 650.319 852.171 649.893C849.42 649.873 847.063 649.855 844.711 649.052C842.723 652.18 841.917 654.925 841.899 657.282C841.852 663.569 846.907 670.679 874.399 672.456L900.714 673.832C944.312 676.122 960.685 693.534 960.438 726.538C960.215 756.398 933.491 809.637 842.337 808.955ZM878.672 573.863C878.851 549.896 867.938 538.027 856.151 537.939C842.006 537.833 834.834 551.139 834.661 574.32C834.473 599.466 844.612 609.758 856.399 609.846C870.937 609.955 878.502 596.652 878.672 573.863ZM904.927 741.054C904.997 731.624 898.347 727.645 880.67 727.12L853.571 725.346C840.608 724.856 834.724 723.633 828.851 720.839C817.418 725.861 813.035 734.08 812.979 741.545C812.897 752.547 821.819 767.938 856.394 768.196C891.363 768.457 904.842 752.448 904.927 741.054Z" stroke="black" stroke-width="2" mask="url(#path-1-outside-1_2823_1580)"/>
<path d="M975.64 703.862L977.872 405.253L1041.57 399.836L1039.29 704.337L975.64 703.862Z" stroke="black" stroke-width="2" mask="url(#path-1-outside-1_2823_1580)"/>
<path d="M1231.33 696.343C1210.83 705.227 1186.44 709.367 1167.58 709.226C1086.64 709.014 1063.01 663.257 1063.45 603.929C1063.92 541.85 1099.2 500.463 1157.74 500.901C1206.85 501.268 1234.12 533.299 1233.7 589.484C1233.64 596.949 1232.78 607.159 1230.74 617.753L1126.22 616.972C1126.81 643.695 1141.63 658.737 1174.63 658.984C1191.13 659.107 1209.62 657.281 1233.63 650.78L1231.33 696.343ZM1174.81 582.364C1174.99 558.004 1164.87 545.748 1150.73 545.642C1136.97 545.539 1126.27 557.64 1125.69 583.176L1174.81 582.364Z" stroke="black" stroke-width="2" mask="url(#path-1-outside-1_2823_1580)"/>
<path d="M1326.93 451.871C1326.39 471.906 1320.29 499.365 1281.83 544.657L1249.36 526.733C1268.44 496.227 1273.69 477.406 1273.79 464.833C1273.87 453.832 1270.03 442.408 1256 426.979C1264.75 411.72 1277.78 403.566 1290.75 403.663C1313.14 403.831 1327.51 427.121 1326.93 451.871Z" stroke="black" stroke-width="2" mask="url(#path-1-outside-1_2823_1580)"/>
<path d="M1471.78 639.594C1471.51 675.742 1448.46 710.933 1391.88 710.51C1376.95 710.398 1356.54 707.102 1339.3 701.079L1339.27 652.749C1362 659.599 1374.17 661.261 1385.96 661.349C1402.85 661.476 1408.8 654.448 1408.87 645.804C1408.91 639.517 1406.6 633.999 1389.75 627.979L1374.46 623.15C1348.19 615.095 1338.1 598.909 1338.31 571.013C1338.21 530.934 1364.36 502.445 1414.65 502.821C1429.58 502.933 1449.6 505.44 1465.66 511.847L1461 557.392C1441 552.527 1428.43 551.254 1419 551.184C1403.29 551.066 1398.13 557.315 1398.07 565.173C1398.03 571.459 1400.74 576.195 1416.81 581.423L1431.71 586.249C1462.28 595.908 1471.97 614.055 1471.78 639.594Z" stroke="black" stroke-width="2" mask="url(#path-1-outside-1_2823_1580)"/>
<path d="M397.624 1085.4L385.107 806.707L459.685 803.358L566.481 974.372L558.6 798.915L622.973 796.024L635.49 1074.71L559.342 1078.13L453.724 907.067L461.605 1082.52L397.624 1085.4Z" stroke="black" stroke-width="2" mask="url(#path-1-outside-1_2823_1580)"/>
<path d="M828.318 1056.61C808.313 1066.56 784.17 1071.97 765.329 1072.81C684.488 1076.84 658.5 1032.38 655.838 973.112C653.052 911.093 686.117 867.917 744.603 865.29C793.667 863.087 822.572 893.647 825.093 949.777C825.428 957.235 825.101 967.476 823.614 978.162L719.205 982.852C721.188 1009.51 736.774 1023.75 769.746 1022.27C786.231 1021.53 804.592 1018.74 828.236 1010.99L828.318 1056.61ZM765.915 945.749C764.822 921.412 754.07 909.703 739.94 910.337C726.201 910.954 716.15 923.599 716.903 949.13L765.915 945.749Z" stroke="black" stroke-width="2" mask="url(#path-1-outside-1_2823_1580)"/>
<path d="M983.349 991.047C984.971 1027.16 963.791 1063.51 907.269 1066.05C892.353 1066.72 871.801 1064.49 854.266 1059.38L851.705 1011.12C874.77 1016.77 887.009 1017.79 898.784 1017.26C915.663 1016.51 921.233 1009.18 920.845 1000.54C920.563 994.26 917.961 988.87 900.819 983.741L885.299 979.718C858.648 973.049 847.719 957.414 846.468 929.545C844.277 889.525 868.896 859.708 919.138 857.451C934.054 856.781 954.178 858.237 970.554 863.795L968.281 909.521C948.051 905.71 935.437 905.096 926.017 905.52C910.316 906.225 905.496 912.734 905.848 920.585C906.13 926.865 909.089 931.452 925.412 935.832L940.539 939.872C971.579 947.918 982.203 965.533 983.349 991.047Z" stroke="black" stroke-width="2" mask="url(#path-1-outside-1_2823_1580)"/>
<path d="M1126.9 1045.96C1112.68 1053.28 1096.73 1057.14 1082.6 1057.78C1048.05 1059.33 1020.34 1046.42 1017.82 990.285L1014.27 911.389L993.861 912.305L991.816 866.773L1014.76 861.022L1020.59 815.53L1073.54 812.365L1075.64 859.075L1116.85 857.224L1117.11 906.769L1077.86 908.532L1081.05 979.579C1081.91 998.812 1089.62 1003.97 1102.18 1003.41C1107.67 1003.16 1114.33 1002.47 1125.55 998.425L1126.9 1045.96Z" stroke="black" stroke-width="2" mask="url(#path-1-outside-1_2823_1580)"/>
</svg>
