<svg width="1440" height="1024" viewBox="0 0 1440 1024" fill="none" xmlns="http://www.w3.org/2000/svg">
<g clip-path="url(#clip0_2652_4895)">
<rect width="1440" height="1024" fill="url(#paint0_linear_2652_4895)"/>
<g opacity="0.5">
<g opacity="0.5">
<rect x="-101" y="19.1447" width="232.136" height="232.136" transform="rotate(-45 -101 19.1447)" fill="#CD61CF" fill-opacity="0.5"/>
<rect x="-100.293" y="19.1447" width="231.136" height="231.136" transform="rotate(-45 -100.293 19.1447)" stroke="url(#paint1_radial_2652_4895)" stroke-opacity="0.1"/>
<rect x="227.289" y="19.1447" width="232.136" height="232.136" transform="rotate(-45 227.289 19.1447)" fill="#CD61CF" fill-opacity="0.5"/>
<rect x="227.996" y="19.1447" width="231.136" height="231.136" transform="rotate(-45 227.996 19.1447)" stroke="url(#paint2_radial_2652_4895)" stroke-opacity="0.1"/>
<rect x="555.579" y="19.1447" width="232.136" height="232.136" transform="rotate(-45 555.579 19.1447)" fill="#CD61CF" fill-opacity="0.5"/>
<rect x="556.286" y="19.1447" width="231.136" height="231.136" transform="rotate(-45 556.286 19.1447)" stroke="url(#paint3_radial_2652_4895)" stroke-opacity="0.1"/>
<rect x="883.868" y="19.1447" width="232.136" height="232.136" transform="rotate(-45 883.868 19.1447)" fill="#CD61CF" fill-opacity="0.5"/>
<rect x="884.575" y="19.1447" width="231.136" height="231.136" transform="rotate(-45 884.575 19.1447)" stroke="url(#paint4_radial_2652_4895)" stroke-opacity="0.1"/>
<rect x="1212.16" y="19.1447" width="232.136" height="232.136" transform="rotate(-45 1212.16 19.1447)" fill="#CD61CF" fill-opacity="0.5"/>
<rect x="1212.86" y="19.1447" width="231.136" height="231.136" transform="rotate(-45 1212.86 19.1447)" stroke="url(#paint5_radial_2652_4895)" stroke-opacity="0.1"/>
</g>
<g opacity="0.5">
<rect x="-101" y="347.434" width="232.136" height="232.136" transform="rotate(-45 -101 347.434)" fill="#CD61CF" fill-opacity="0.5"/>
<rect x="-100.293" y="347.434" width="231.136" height="231.136" transform="rotate(-45 -100.293 347.434)" stroke="url(#paint6_radial_2652_4895)" stroke-opacity="0.1"/>
<rect x="227.289" y="347.434" width="232.136" height="232.136" transform="rotate(-45 227.289 347.434)" fill="#CD61CF" fill-opacity="0.5"/>
<rect x="227.996" y="347.434" width="231.136" height="231.136" transform="rotate(-45 227.996 347.434)" stroke="url(#paint7_radial_2652_4895)" stroke-opacity="0.1"/>
<rect x="555.579" y="347.434" width="232.136" height="232.136" transform="rotate(-45 555.579 347.434)" fill="#CD61CF" fill-opacity="0.5"/>
<rect x="556.286" y="347.434" width="231.136" height="231.136" transform="rotate(-45 556.286 347.434)" stroke="url(#paint8_radial_2652_4895)" stroke-opacity="0.1"/>
<rect x="883.868" y="347.434" width="232.136" height="232.136" transform="rotate(-45 883.868 347.434)" fill="#CD61CF" fill-opacity="0.5"/>
<rect x="884.575" y="347.434" width="231.136" height="231.136" transform="rotate(-45 884.575 347.434)" stroke="url(#paint9_radial_2652_4895)" stroke-opacity="0.1"/>
<rect x="1212.16" y="347.434" width="232.136" height="232.136" transform="rotate(-45 1212.16 347.434)" fill="#CD61CF" fill-opacity="0.5"/>
<rect x="1212.86" y="347.434" width="231.136" height="231.136" transform="rotate(-45 1212.86 347.434)" stroke="url(#paint10_radial_2652_4895)" stroke-opacity="0.1"/>
</g>
<g opacity="0.5">
<rect x="-101" y="675.723" width="232.136" height="232.136" transform="rotate(-45 -101 675.723)" fill="#CD61CF" fill-opacity="0.5"/>
<rect x="-100.293" y="675.723" width="231.136" height="231.136" transform="rotate(-45 -100.293 675.723)" stroke="url(#paint11_radial_2652_4895)" stroke-opacity="0.1"/>
<rect x="227.289" y="675.723" width="232.136" height="232.136" transform="rotate(-45 227.289 675.723)" fill="#CD61CF" fill-opacity="0.5"/>
<rect x="227.996" y="675.723" width="231.136" height="231.136" transform="rotate(-45 227.996 675.723)" stroke="url(#paint12_radial_2652_4895)" stroke-opacity="0.1"/>
<rect x="555.579" y="675.723" width="232.136" height="232.136" transform="rotate(-45 555.579 675.723)" fill="#CD61CF" fill-opacity="0.5"/>
<rect x="556.286" y="675.723" width="231.136" height="231.136" transform="rotate(-45 556.286 675.723)" stroke="url(#paint13_radial_2652_4895)" stroke-opacity="0.1"/>
<rect x="883.868" y="675.723" width="232.136" height="232.136" transform="rotate(-45 883.868 675.723)" fill="#CD61CF" fill-opacity="0.5"/>
<rect x="884.575" y="675.723" width="231.136" height="231.136" transform="rotate(-45 884.575 675.723)" stroke="url(#paint14_radial_2652_4895)" stroke-opacity="0.1"/>
<rect x="1212.16" y="675.723" width="232.136" height="232.136" transform="rotate(-45 1212.16 675.723)" fill="#CD61CF" fill-opacity="0.5"/>
<rect x="1212.86" y="675.723" width="231.136" height="231.136" transform="rotate(-45 1212.86 675.723)" stroke="url(#paint15_radial_2652_4895)" stroke-opacity="0.1"/>
</g>
<g opacity="0.5">
<rect x="-101" y="1004.01" width="232.136" height="232.136" transform="rotate(-45 -101 1004.01)" fill="#F177F2" fill-opacity="0.5"/>
<rect x="-100.293" y="1004.01" width="231.136" height="231.136" transform="rotate(-45 -100.293 1004.01)" stroke="url(#paint16_radial_2652_4895)" stroke-opacity="0.1"/>
<rect x="227.289" y="1004.01" width="232.136" height="232.136" transform="rotate(-45 227.289 1004.01)" fill="#F177F2" fill-opacity="0.5"/>
<rect x="227.996" y="1004.01" width="231.136" height="231.136" transform="rotate(-45 227.996 1004.01)" stroke="url(#paint17_radial_2652_4895)" stroke-opacity="0.1"/>
<rect x="555.579" y="1004.01" width="232.136" height="232.136" transform="rotate(-45 555.579 1004.01)" fill="#F177F2" fill-opacity="0.5"/>
<rect x="556.286" y="1004.01" width="231.136" height="231.136" transform="rotate(-45 556.286 1004.01)" stroke="url(#paint18_radial_2652_4895)" stroke-opacity="0.1"/>
<rect x="883.868" y="1004.01" width="232.136" height="232.136" transform="rotate(-45 883.868 1004.01)" fill="#F177F2" fill-opacity="0.5"/>
<rect x="884.575" y="1004.01" width="231.136" height="231.136" transform="rotate(-45 884.575 1004.01)" stroke="url(#paint19_radial_2652_4895)" stroke-opacity="0.1"/>
<rect x="1212.16" y="1004.01" width="232.136" height="232.136" transform="rotate(-45 1212.16 1004.01)" fill="#F177F2" fill-opacity="0.5"/>
<rect x="1212.86" y="1004.01" width="231.136" height="231.136" transform="rotate(-45 1212.86 1004.01)" stroke="url(#paint20_radial_2652_4895)" stroke-opacity="0.1"/>
</g>
</g>
</g>
<defs>
<linearGradient id="paint0_linear_2652_4895" x1="720" y1="0" x2="720" y2="1130" gradientUnits="userSpaceOnUse">
<stop stop-color="#56D0D3"/>
<stop offset="1" stop-color="#2D55AA"/>
</linearGradient>
<radialGradient id="paint1_radial_2652_4895" cx="0" cy="0" r="1" gradientUnits="userSpaceOnUse" gradientTransform="translate(15.0678 135.212) rotate(90) scale(116.068)">
<stop stop-color="white"/>
<stop offset="1" stop-color="#999999"/>
</radialGradient>
<radialGradient id="paint2_radial_2652_4895" cx="0" cy="0" r="1" gradientUnits="userSpaceOnUse" gradientTransform="translate(343.357 135.212) rotate(90) scale(116.068)">
<stop stop-color="white"/>
<stop offset="1" stop-color="#999999"/>
</radialGradient>
<radialGradient id="paint3_radial_2652_4895" cx="0" cy="0" r="1" gradientUnits="userSpaceOnUse" gradientTransform="translate(671.646 135.212) rotate(90) scale(116.068)">
<stop stop-color="white"/>
<stop offset="1" stop-color="#999999"/>
</radialGradient>
<radialGradient id="paint4_radial_2652_4895" cx="0" cy="0" r="1" gradientUnits="userSpaceOnUse" gradientTransform="translate(999.936 135.212) rotate(90) scale(116.068)">
<stop stop-color="white"/>
<stop offset="1" stop-color="#999999"/>
</radialGradient>
<radialGradient id="paint5_radial_2652_4895" cx="0" cy="0" r="1" gradientUnits="userSpaceOnUse" gradientTransform="translate(1328.23 135.212) rotate(90) scale(116.068)">
<stop stop-color="white"/>
<stop offset="1" stop-color="#999999"/>
</radialGradient>
<radialGradient id="paint6_radial_2652_4895" cx="0" cy="0" r="1" gradientUnits="userSpaceOnUse" gradientTransform="translate(15.0678 463.502) rotate(90) scale(116.068)">
<stop stop-color="white"/>
<stop offset="1" stop-color="#999999"/>
</radialGradient>
<radialGradient id="paint7_radial_2652_4895" cx="0" cy="0" r="1" gradientUnits="userSpaceOnUse" gradientTransform="translate(343.357 463.502) rotate(90) scale(116.068)">
<stop stop-color="white"/>
<stop offset="1" stop-color="#999999"/>
</radialGradient>
<radialGradient id="paint8_radial_2652_4895" cx="0" cy="0" r="1" gradientUnits="userSpaceOnUse" gradientTransform="translate(671.646 463.502) rotate(90) scale(116.068)">
<stop stop-color="white"/>
<stop offset="1" stop-color="#999999"/>
</radialGradient>
<radialGradient id="paint9_radial_2652_4895" cx="0" cy="0" r="1" gradientUnits="userSpaceOnUse" gradientTransform="translate(999.936 463.502) rotate(90) scale(116.068)">
<stop stop-color="white"/>
<stop offset="1" stop-color="#999999"/>
</radialGradient>
<radialGradient id="paint10_radial_2652_4895" cx="0" cy="0" r="1" gradientUnits="userSpaceOnUse" gradientTransform="translate(1328.23 463.502) rotate(90) scale(116.068)">
<stop stop-color="white"/>
<stop offset="1" stop-color="#999999"/>
</radialGradient>
<radialGradient id="paint11_radial_2652_4895" cx="0" cy="0" r="1" gradientUnits="userSpaceOnUse" gradientTransform="translate(15.0678 791.791) rotate(90) scale(116.068)">
<stop stop-color="white"/>
<stop offset="1" stop-color="#999999"/>
</radialGradient>
<radialGradient id="paint12_radial_2652_4895" cx="0" cy="0" r="1" gradientUnits="userSpaceOnUse" gradientTransform="translate(343.357 791.791) rotate(90) scale(116.068)">
<stop stop-color="white"/>
<stop offset="1" stop-color="#999999"/>
</radialGradient>
<radialGradient id="paint13_radial_2652_4895" cx="0" cy="0" r="1" gradientUnits="userSpaceOnUse" gradientTransform="translate(671.646 791.791) rotate(90) scale(116.068)">
<stop stop-color="white"/>
<stop offset="1" stop-color="#999999"/>
</radialGradient>
<radialGradient id="paint14_radial_2652_4895" cx="0" cy="0" r="1" gradientUnits="userSpaceOnUse" gradientTransform="translate(999.936 791.791) rotate(90) scale(116.068)">
<stop stop-color="white"/>
<stop offset="1" stop-color="#999999"/>
</radialGradient>
<radialGradient id="paint15_radial_2652_4895" cx="0" cy="0" r="1" gradientUnits="userSpaceOnUse" gradientTransform="translate(1328.23 791.791) rotate(90) scale(116.068)">
<stop stop-color="white"/>
<stop offset="1" stop-color="#999999"/>
</radialGradient>
<radialGradient id="paint16_radial_2652_4895" cx="0" cy="0" r="1" gradientUnits="userSpaceOnUse" gradientTransform="translate(15.0678 1120.08) rotate(90) scale(116.068)">
<stop stop-color="white"/>
<stop offset="1" stop-color="#999999"/>
</radialGradient>
<radialGradient id="paint17_radial_2652_4895" cx="0" cy="0" r="1" gradientUnits="userSpaceOnUse" gradientTransform="translate(343.357 1120.08) rotate(90) scale(116.068)">
<stop stop-color="white"/>
<stop offset="1" stop-color="#999999"/>
</radialGradient>
<radialGradient id="paint18_radial_2652_4895" cx="0" cy="0" r="1" gradientUnits="userSpaceOnUse" gradientTransform="translate(671.646 1120.08) rotate(90) scale(116.068)">
<stop stop-color="white"/>
<stop offset="1" stop-color="#999999"/>
</radialGradient>
<radialGradient id="paint19_radial_2652_4895" cx="0" cy="0" r="1" gradientUnits="userSpaceOnUse" gradientTransform="translate(999.936 1120.08) rotate(90) scale(116.068)">
<stop stop-color="white"/>
<stop offset="1" stop-color="#999999"/>
</radialGradient>
<radialGradient id="paint20_radial_2652_4895" cx="0" cy="0" r="1" gradientUnits="userSpaceOnUse" gradientTransform="translate(1328.23 1120.08) rotate(90) scale(116.068)">
<stop stop-color="white"/>
<stop offset="1" stop-color="#999999"/>
</radialGradient>
<clipPath id="clip0_2652_4895">
<rect width="1440" height="1024" fill="white"/>
</clipPath>
</defs>
</svg>
