<svg width="1094" height="671" viewBox="0 0 1094 671" fill="none" xmlns="http://www.w3.org/2000/svg">
<g filter="url(#filter0_d_2204_227)">
<path d="M0 0.410872L1071.72 0V648.455H0L0 0.410872Z" fill="#D6AF81"/>
<mask id="mask0_2204_227" style="mask-type:alpha" maskUnits="userSpaceOnUse" x="0" y="0" width="1072" height="649">
<rect y="0.411133" width="1071.72" height="648.044" fill="#D6AF81"/>
</mask>
<g mask="url(#mask0_2204_227)">
<g filter="url(#filter1_n_2204_227)" style="mix-blend-mode:overlay">
<rect width="1071.21" height="648.806" fill="url(#paint0_linear_2204_227)"/>
</g>
<path d="M482.167 244.5C420.633 260.89 -2.20194 648.806 -2.20194 648.806L1069.01 648.806C1069.01 648.806 673.225 264.471 609.669 244.5C546.113 224.53 543.7 228.111 482.167 244.5Z" fill="#C99F6B"/>
</g>
<g filter="url(#filter2_i_2204_227)">
<path d="M588.46 404.525C649.562 388.171 1069.43 0.000400493 1069.43 0.000400493L3.54243 0.000213623C3.54243 0.000213623 410.107 390.676 461.852 404.525C513.596 418.373 527.358 420.879 588.46 404.525Z" fill="#AE8049"/>
</g>
<mask id="mask1_2204_227" style="mask-type:alpha" maskUnits="userSpaceOnUse" x="-3" y="317" width="1073" height="332">
<path d="M1069.01 648.806L-2.2023 648.806C-2.2023 648.806 216.67 448.07 362 330C391.909 352.544 422.516 383.692 459 402.5C493.129 420.095 550.5 418.25 595.5 402.5C646 370.5 687.083 336.378 709.5 317.5C847.393 435.504 1069.01 648.806 1069.01 648.806Z" fill="#CDA377"/>
<path d="M1069.01 648.806L-2.2023 648.806C-2.2023 648.806 216.67 448.07 362 330C391.909 352.544 422.516 383.692 459 402.5C493.129 420.095 550.5 418.25 595.5 402.5C646 370.5 687.083 336.378 709.5 317.5C847.393 435.504 1069.01 648.806 1069.01 648.806Z" fill="url(#paint1_linear_2204_227)"/>
</mask>
<g mask="url(#mask1_2204_227)">
<g filter="url(#filter3_n_2204_227)" style="mix-blend-mode:overlay">
<rect width="1071.21" height="648.806" fill="url(#paint2_linear_2204_227)"/>
<rect width="1071.21" height="648.806" fill="url(#paint3_linear_2204_227)"/>
</g>
</g>
</g>
<defs>
<filter id="filter0_d_2204_227" x="0" y="0" width="1099.9" height="670.9" filterUnits="userSpaceOnUse" color-interpolation-filters="sRGB">
<feFlood flood-opacity="0" result="BackgroundImageFix"/>
<feColorMatrix in="SourceAlpha" type="matrix" values="0 0 0 0 0 0 0 0 0 0 0 0 0 0 0 0 0 0 127 0" result="hardAlpha"/>
<feOffset dx="11" dy="11"/>
<feGaussianBlur stdDeviation="5.45"/>
<feComposite in2="hardAlpha" operator="out"/>
<feColorMatrix type="matrix" values="0 0 0 0 0 0 0 0 0 0 0 0 0 0 0 0 0 0 0.25 0"/>
<feBlend mode="normal" in2="BackgroundImageFix" result="effect1_dropShadow_2204_227"/>
<feBlend mode="normal" in="SourceGraphic" in2="effect1_dropShadow_2204_227" result="shape"/>
</filter>
<filter id="filter1_n_2204_227" x="0" y="0" width="1071.21" height="648.806" filterUnits="userSpaceOnUse" color-interpolation-filters="sRGB">
<feFlood flood-opacity="0" result="BackgroundImageFix"/>
<feBlend mode="normal" in="SourceGraphic" in2="BackgroundImageFix" result="shape"/>
<feTurbulence type="fractalNoise" baseFrequency="0.75757575035095215 0.75757575035095215" stitchTiles="stitch" numOctaves="3" result="noise" seed="8662" />
<feColorMatrix in="noise" type="luminanceToAlpha" result="alphaNoise" />
<feComponentTransfer in="alphaNoise" result="coloredNoise1">
<feFuncA type="discrete" tableValues="1 1 1 1 1 1 1 1 1 1 1 1 1 1 1 1 1 1 1 1 1 1 1 1 1 1 1 1 1 1 1 1 1 1 1 1 1 1 1 1 1 1 1 1 1 1 1 1 1 1 1 0 0 0 0 0 0 0 0 0 0 0 0 0 0 0 0 0 0 0 0 0 0 0 0 0 0 0 0 0 0 0 0 0 0 0 0 0 0 0 0 0 0 0 0 0 0 0 0 0 "/>
</feComponentTransfer>
<feComposite operator="in" in2="shape" in="coloredNoise1" result="noise1Clipped" />
<feFlood flood-color="rgba(0, 0, 0, 0.25)" result="color1Flood" />
<feComposite operator="in" in2="noise1Clipped" in="color1Flood" result="color1" />
<feMerge result="effect1_noise_2204_227">
<feMergeNode in="shape" />
<feMergeNode in="color1" />
</feMerge>
</filter>
<filter id="filter2_i_2204_227" x="3.54248" y="-17.1" width="1065.89" height="432.97" filterUnits="userSpaceOnUse" color-interpolation-filters="sRGB">
<feFlood flood-opacity="0" result="BackgroundImageFix"/>
<feBlend mode="normal" in="SourceGraphic" in2="BackgroundImageFix" result="shape"/>
<feColorMatrix in="SourceAlpha" type="matrix" values="0 0 0 0 0 0 0 0 0 0 0 0 0 0 0 0 0 0 127 0" result="hardAlpha"/>
<feOffset dy="-32"/>
<feGaussianBlur stdDeviation="8.55"/>
<feComposite in2="hardAlpha" operator="arithmetic" k2="-1" k3="1"/>
<feColorMatrix type="matrix" values="0 0 0 0 0 0 0 0 0 0 0 0 0 0 0 0 0 0 0.25 0"/>
<feBlend mode="soft-light" in2="shape" result="effect1_innerShadow_2204_227"/>
</filter>
<filter id="filter3_n_2204_227" x="0" y="0" width="1071.21" height="648.806" filterUnits="userSpaceOnUse" color-interpolation-filters="sRGB">
<feFlood flood-opacity="0" result="BackgroundImageFix"/>
<feBlend mode="normal" in="SourceGraphic" in2="BackgroundImageFix" result="shape"/>
<feTurbulence type="fractalNoise" baseFrequency="0.75757575035095215 0.75757575035095215" stitchTiles="stitch" numOctaves="3" result="noise" seed="8662" />
<feColorMatrix in="noise" type="luminanceToAlpha" result="alphaNoise" />
<feComponentTransfer in="alphaNoise" result="coloredNoise1">
<feFuncA type="discrete" tableValues="1 1 1 1 1 1 1 1 1 1 1 1 1 1 1 1 1 1 1 1 1 1 1 1 1 1 1 1 1 1 1 1 1 1 1 1 1 1 1 1 1 1 1 1 1 1 1 1 1 1 1 0 0 0 0 0 0 0 0 0 0 0 0 0 0 0 0 0 0 0 0 0 0 0 0 0 0 0 0 0 0 0 0 0 0 0 0 0 0 0 0 0 0 0 0 0 0 0 0 0 "/>
</feComponentTransfer>
<feComposite operator="in" in2="shape" in="coloredNoise1" result="noise1Clipped" />
<feFlood flood-color="rgba(0, 0, 0, 0.25)" result="color1Flood" />
<feComposite operator="in" in2="noise1Clipped" in="color1Flood" result="color1" />
<feMerge result="effect1_noise_2204_227">
<feMergeNode in="shape" />
<feMergeNode in="color1" />
</feMerge>
</filter>
<linearGradient id="paint0_linear_2204_227" x1="472.303" y1="83.0252" x2="490.427" y2="608.12" gradientUnits="userSpaceOnUse">
<stop stop-color="#D9D9D9" stop-opacity="0"/>
<stop offset="1" stop-color="#2D2D2D"/>
</linearGradient>
<linearGradient id="paint1_linear_2204_227" x1="533.405" y1="324.403" x2="533.405" y2="648.806" gradientUnits="userSpaceOnUse">
<stop stop-color="#D9D9D9" stop-opacity="0"/>
<stop offset="1" stop-color="#2D2D2D"/>
</linearGradient>
<linearGradient id="paint2_linear_2204_227" x1="535.607" y1="0" x2="535.607" y2="648.806" gradientUnits="userSpaceOnUse">
<stop stop-color="#D9D9D9" stop-opacity="0"/>
<stop offset="1" stop-color="#2D2D2D"/>
</linearGradient>
<linearGradient id="paint3_linear_2204_227" x1="535.607" y1="0" x2="535.607" y2="648.806" gradientUnits="userSpaceOnUse">
<stop stop-color="#D9D9D9" stop-opacity="0"/>
<stop offset="1" stop-color="#2D2D2D"/>
</linearGradient>
</defs>
</svg>
