<svg width="1057" height="759" viewBox="0 0 1057 759" fill="none" xmlns="http://www.w3.org/2000/svg">
<g filter="url(#filter0_d_2980_3263)">
<rect x="8.8999" y="7.90002" width="1038.77" height="741" rx="34.2263" fill="url(#paint0_radial_2980_3263)" shape-rendering="crispEdges"/>
<rect x="11.4669" y="10.467" width="1033.64" height="735.866" rx="31.6594" stroke="#CC821A" stroke-width="5.13395" shape-rendering="crispEdges"/>
<g filter="url(#filter1_i_2980_3263)">
<path d="M516.014 475.959C458.513 473.905 460.396 416.918 463.819 402.372C467.241 387.827 473.318 367.146 491.2 337.342C502.349 318.76 515.264 314.554 525.426 316.508C530.845 304.629 542.71 281.041 546.817 281.725C551.951 282.581 553.663 283.435 546.817 291.992C568.209 282.579 581.044 309.961 593.878 310.816C564.786 337.342 544.25 319.373 536.549 310.816C533.817 317.661 533.127 318.535 532.763 319.165C537.64 321.843 541.192 325.869 542.539 329.641C547.49 343.505 538.261 369.857 558.797 389.538C579.332 409.218 587.889 478.526 516.014 475.959Z" fill="url(#paint1_radial_2980_3263)"/>
<path d="M516.014 475.959C458.513 473.905 460.396 416.918 463.819 402.372C467.241 387.827 473.318 367.146 491.2 337.342C502.349 318.76 515.264 314.554 525.426 316.508C530.845 304.629 542.71 281.041 546.817 281.725C551.951 282.581 553.663 283.435 546.817 291.992C568.209 282.579 581.044 309.961 593.878 310.816C564.786 337.342 544.25 319.373 536.549 310.816C533.817 317.661 533.127 318.535 532.763 319.165C537.64 321.843 541.192 325.869 542.539 329.641C547.49 343.505 538.261 369.857 558.797 389.538C579.332 409.218 587.889 478.526 516.014 475.959Z" fill="#484343" fill-opacity="0.2"/>
</g>
</g>
<defs>
<filter id="filter0_d_2980_3263" x="-9.72748e-05" y="2.47955e-05" width="1056.57" height="758.8" filterUnits="userSpaceOnUse" color-interpolation-filters="sRGB">
<feFlood flood-opacity="0" result="BackgroundImageFix"/>
<feColorMatrix in="SourceAlpha" type="matrix" values="0 0 0 0 0 0 0 0 0 0 0 0 0 0 0 0 0 0 127 0" result="hardAlpha"/>
<feOffset dy="1"/>
<feGaussianBlur stdDeviation="4.45"/>
<feComposite in2="hardAlpha" operator="out"/>
<feColorMatrix type="matrix" values="0 0 0 0 0 0 0 0 0 0 0 0 0 0 0 0 0 0 0.58 0"/>
<feBlend mode="normal" in2="BackgroundImageFix" result="effect1_dropShadow_2980_3263"/>
<feBlend mode="normal" in="SourceGraphic" in2="effect1_dropShadow_2980_3263" result="shape"/>
</filter>
<filter id="filter1_i_2980_3263" x="462.399" y="281.71" width="134.902" height="201.163" filterUnits="userSpaceOnUse" color-interpolation-filters="sRGB">
<feFlood flood-opacity="0" result="BackgroundImageFix"/>
<feBlend mode="normal" in="SourceGraphic" in2="BackgroundImageFix" result="shape"/>
<feColorMatrix in="SourceAlpha" type="matrix" values="0 0 0 0 0 0 0 0 0 0 0 0 0 0 0 0 0 0 127 0" result="hardAlpha"/>
<feOffset dx="3.42263" dy="8.55658"/>
<feGaussianBlur stdDeviation="3.42263"/>
<feComposite in2="hardAlpha" operator="arithmetic" k2="-1" k3="1"/>
<feColorMatrix type="matrix" values="0 0 0 0 0 0 0 0 0 0 0 0 0 0 0 0 0 0 0.25 0"/>
<feBlend mode="normal" in2="shape" result="effect1_innerShadow_2980_3263"/>
</filter>
<radialGradient id="paint0_radial_2980_3263" cx="0" cy="0" r="1" gradientTransform="matrix(1487.19 1282.5 -1565.39 277.344 84.0285 93.4)" gradientUnits="userSpaceOnUse">
<stop stop-color="#FFF5C9"/>
<stop offset="0.221163" stop-color="#FFDE50"/>
<stop offset="1" stop-color="#EE8840"/>
</radialGradient>
<radialGradient id="paint1_radial_2980_3263" cx="0" cy="0" r="1" gradientTransform="matrix(188.237 336.32 -198.135 72.73 471.908 304.132)" gradientUnits="userSpaceOnUse">
<stop stop-color="#FFDE50"/>
<stop offset="1" stop-color="#EE8840"/>
</radialGradient>
</defs>
</svg>
